<svg id="eN2p01BdKIP1" xmlns="http://www.w3.org/2000/svg" xmlns:xlink="http://www.w3.org/1999/xlink" viewBox="-0.003 0.004 306.507 64" shape-rendering="geometricPrecision" text-rendering="geometricPrecision"><path d="M63.033,39.744C58.759,56.89,41.396,67.32,24.25,63.046C7.113,58.772,-3.32,41.408,0.956,24.266C5.228,7.12,22.59,-3.313,39.73,0.961c17.144,4.274,27.576,21.64,23.302,38.783Z" paint-order="fill markers stroke" fill="none" stroke="#000"/><path d="M46.103,27.445c.637-4.258-2.605-6.547-7.038-8.074l1.438-5.768-3.511-.875-1.4,5.616c-.935166-.229775-1.872543-.450452-2.812-.662l1.41-5.653-3.51-.875-1.438,5.766c-.764-.174-1.514-.346-2.242-.527l.004-.018-4.842-1.209-.934,3.75c0,0,2.605.597,2.55.634c1.422.355,1.679,1.296,1.636,2.042l-1.638,6.571c.098.025.225.062.365.117l-.371-.092-2.296,9.205c-.174.432-.615,1.08-1.61.834.036.051-2.551-.637-2.551-.637L15.57,41.61l4.569,1.14c.85.212,1.683.435,2.503.645l-1.453,5.834l3.507.875l1.438-5.773c.958.261,1.888.5,2.798.727l-1.434,5.745l3.51.875l1.454-5.823c5.987,1.133,10.489.676,12.384-4.738c1.527-4.36-.076-6.875-3.226-8.516c2.294-.53,4.022-2.039,4.483-5.156ZM38.08,38.693c-1.085,4.36-8.426,2.004-10.806,1.412l1.928-7.729c2.38.595,10.012,1.771,8.878,6.317Zm1.086-11.31c-.99,3.965-7.1,1.95-9.082,1.456l1.748-7.01c1.982.494,8.365,1.416,7.334,5.553Z" transform="translate(-.162194-.412408)"/><path d="M93.773,19.365c2.595,0,4.837.465,6.72,1.378c1.894.922,3.456,2.164,4.709,3.726c1.236,1.57,2.156,3.405,2.75,5.508.59,2.11.886,4.376.886,6.802c0,3.73-.683,7.25-2.062,10.57-1.38,3.325-3.25,6.21-5.63,8.67-2.378,2.457-5.186,4.393-8.424,5.824-3.233,1.432-6.748,2.148-10.522,2.148-.488,0-1.346-.014-2.558-.039s-2.605-.15-4.165-.36c-1.676824-.23944-3.340068-.565881-4.983-.978-1.719364-.415142-3.389744-1.011826-4.983-1.78L79.523,1.956l12.55-1.944-5.017,20.893c1.04336-.471557,2.126206-.850353,3.236-1.132c1.139114-.27689,2.307731-.413901,3.48-.408ZM83.246,54.035c1.89,0,3.67-.465,5.344-1.377c1.682611-.919846,3.159225-2.174236,4.339-3.686c1.232874-1.576266,2.203036-3.341332,2.873-5.227.702513-1.949185,1.059205-4.006088,1.054-6.078c0-2.592-.433-4.61-1.296-6.073-.863-1.455-2.46-2.187-4.78-2.187-.76,0-1.738.145-2.952.404-1.218.275-2.308.846-3.285,1.705L79.2,53.704c.322.057.607.111.85.162.238.055.5.094.763.121.277.031.594.047.977.047l1.455.001Zm38.607,8.83h-11.987l10.123-42.597h12.069L121.853,62.865Zm5.833-47.787c-1.635348.013562-3.22958-.512225-4.536-1.496-1.357-.992-2.03-2.519-2.03-4.577c0-1.132.23-2.194.687-3.196.441636-.970643,1.060955-1.850103,1.826-2.593.766757-.731878,1.657205-1.322012,2.63-1.743c1.012436-.432656,2.103012-.652541,3.204-.646c1.672,0,3.18.498,4.532,1.496c1.346,1.003,2.023,2.53,2.023,4.577.0066,1.104916-.22892,2.197865-.69,3.202-.437349.971583-1.054918,1.85145-1.82,2.593-.764977.732827-1.65592,1.321595-2.63,1.738-1.002.438-2.064.645-3.196.645Zm14.877-5.423L155.118,7.71l-3.083,12.556h13.446l-2.428,9.878h-13.365l-3.56,14.9c-.328,1.241-.514,2.401-.566,3.48-.06,1.083.078,2.013.402,2.796.322.785.9,1.39,1.74,1.817.837.435,2.034.654,3.604.654c1.293,0,2.554-.123,3.77-.367c1.249377-.247654,2.479242-.585198,3.68-1.01l.896,9.235c-1.720298.622908-3.478523,1.135612-5.264,1.535-1.893.436-4.134.645-6.724.645-3.724,0-6.611-.553-8.668-1.653-2.054-1.108-3.506-2.624-4.375-4.542-.857-1.91-1.24-4.113-1.133-6.596.11-2.488.486-5.104,1.133-7.857l7.94-33.526Zm22.391,36.201c0-3.67.594-7.129,1.78-10.369c1.185-3.242,2.892-6.077,5.106-8.509c2.207-2.42,4.896-4.339,8.062-5.747c3.148-1.4,6.676-2.106,10.562-2.106c2.434,0,4.607.23,6.52.691c1.92.465,3.656,1.066,5.227,1.82l-4.133,9.4c-1.101688-.442798-2.223213-.834547-3.361-1.174-1.16-.357-2.575-.529-4.25-.529-4.002,0-7.164,1.38-9.518,4.128-2.346,2.751-3.527,6.454-3.527,11.1c0,2.753.595,4.978,1.787,6.681c1.186,1.703,3.377,2.551,6.558,2.551c1.569,0,3.085-.164,4.536-.484c1.462-.324,2.753-.732,3.89-1.214l.896,9.636c-1.640088.629069-3.316836,1.158041-5.021,1.584-1.84.45-4.027.682-6.564.682-3.348,0-6.184-.489-8.502-1.455-2.32-.979-4.237-2.28-5.748-3.928-1.518-1.652-2.607-3.582-3.281-5.795s-1.02-4.54-1.02-6.963Zm53.25,18.138c-2.861,0-5.347-.436-7.455-1.299-2.102-.862-3.842-2.074-5.22-3.644-1.38-1.562-2.411-3.413-3.118-5.546-.707-2.132-1.047-4.493-1.047-7.08c0-3.244.52-6.488,1.574-9.725c1.049-3.24,2.604-6.154,4.66-8.743c2.043-2.593,4.563-4.713,7.527-6.366c2.963-1.642,6.37-2.468,10.199-2.468c2.809,0,5.28.437,7.418,1.3c2.127.861,3.879,2.082,5.264,3.644c1.37,1.57,2.412,3.413,3.11,5.55.706,2.127,1.054,4.494,1.054,7.083c0,3.234-.514,6.48-1.533,9.724-1.021,3.23-2.536,6.15-4.536,8.744-1.996,2.59-4.491,4.708-7.49,6.354-2.993,1.647-6.466,2.472-10.407,2.472Zm5.99-34.66c-1.777,0-3.348.515-4.693,1.534-1.35,1.031-2.483,2.328-3.397,3.89-.924,1.57-1.608,3.282-2.071,5.143-.46,1.865-.685,3.63-.685,5.303c0,2.703.437,4.81,1.293,6.324.868,1.506,2.43,2.265,4.698,2.265c1.783,0,3.347-.513,4.699-1.542c1.342-1.023,2.478-2.32,3.398-3.887.918-1.56,1.609-3.278,2.072-5.143.453-1.859.684-3.632.684-5.304c0-2.696-.434-4.806-1.3-6.319-.862-1.507-2.431-2.265-4.698-2.265Zm31.039,33.531h-11.996L253.36,20.268h12.074L255.233,62.865Zm5.824-47.787c-1.633851.013805-3.226574-.512064-4.531-1.496-1.352-.992-2.03-2.519-2.03-4.577c0-1.132.234-2.194.69-3.196.438731-.971801,1.05765-1.851657,1.824-2.593.767681-.73214,1.659161-1.322284,2.633-1.743c1.008547-.432739,2.095555-.65266,3.193-.646c1.677,0,3.19.498,4.539,1.496c1.349,1.003,2.029,2.53,2.029,4.577c0,1.136-.242,2.202-.695,3.202s-1.062,1.861-1.816,2.593c-.766359.731095-1.656971,1.319645-2.63,1.738-1.005.438-2.067.645-3.206.645Zm13.016,7.127c.91-.266,1.926-.586,3.03-.934c1.228195-.380868,2.473961-.702571,3.733-.964c1.369-.3,2.914-.545,4.613-.734c1.698-.193,3.635-.287,5.785-.287c6.322,0,10.68,1.841,13.086,5.512c2.404,3.671,2.82,8.694,1.26,15.063l-5.514,23h-12.066l5.345-22.517c.325-1.405.58-2.765.77-4.093.192-1.316.18-2.477-.042-3.48-.19604-.961594-.7251-1.823175-1.494-2.433-.791-.619-1.986-.93-3.606-.93-1.604317.006328-3.204086.171128-4.776.492L276.34,62.858h-12.07l9.803-40.653Z" fill="#4d4d4d" stroke="#fff"/></svg>
