<svg id="en3ODAxag0t1" xmlns="http://www.w3.org/2000/svg" xmlns:xlink="http://www.w3.org/1999/xlink" viewBox="0 0 192 70" shape-rendering="geometricPrecision" text-rendering="geometricPrecision"><path d="M29.349,116.256h11.499v-20.787h-11.499v20.787Zm146.827,0h11.5v-20.787h-11.5v20.787Z" transform="translate(-.437981-62.257006)" clip-rule="evenodd" fill-rule="evenodd"/><path d="M182.545,76.5h-179.711v39.662h19.902v-24.916l159.808.004c2.663777.044048,5.144294-1.351778,6.489164-3.651554s1.345064-5.146054.000505-7.446012-3.824886-3.696121-6.488669-3.652434Zm-22.076,9.721h-137.732v-4.704l137.732.013c.849511-.017542,1.642108.425632,2.072008,1.158546s.4299,1.640995,0,2.373908-1.222497,1.176088-2.072008,1.158546Z" transform="translate(-.437981-62.257004)" clip-rule="evenodd" fill-rule="evenodd"/><path d="M76.889,108.795c2.349-1.064,3.835-3.43,3.835-6.176c0-3.742-2.943-7.15-7.956-7.15h-23.661v20.787h11.499v-6.707h3.76l3.464,6.707h12.899l-3.84-7.461Zm-9.722-4.281h-6.561v-4.4l6.561.022c1.208951,0,2.189.980049,2.189,2.189s-.980049,2.189-2.189,2.189Zm20.774,11.742h25.358v-4.644h-13.86v-3.059h13.86v-5.012h-13.86v-3.059h13.86v-5.013h-25.358v20.787Zm44.696-20.787h-11.5v20.787h23.146v-4.644h-11.646v-16.143Zm27.101,0h-11.498v20.787h23.145v-4.644h-11.647v-16.143Z" transform="translate(-.437981-62.257004)" clip-rule="evenodd" fill-rule="evenodd"/></svg>
